ModelForces
version=1
nRows=31
nColumns=15
inDegrees=no

This file contains the forces exerted on a model during a simulation.

A force is a generalized force, meaning that it can be either a force (N) or a torque (Nm).

Units are S.I. units (second, meters, Newtons, ...)
Angles are in degrees.

endheader
time	Liu	Thelen	contactForce.block.force.X	contactForce.block.force.Y	contactForce.block.force.Z	contactForce.block.torque.X	contactForce.block.torque.Y	contactForce.block.torque.Z	contactForce.ground.force.X	contactForce.ground.force.Y	contactForce.ground.force.Z	contactForce.ground.torque.X	contactForce.ground.torque.Y	contactForce.ground.torque.Z
      1.24976786	    288.67039563	    288.36531106	      2.24783321	    371.98824178	      0.29515711	     -0.01464807	     -0.00000000	      0.11155557	     -2.24783321	   -371.98824178	     -0.29515711	      0.80886192	     -0.00461598	     -0.34252327
      1.25346786	    289.88831019	    288.19569062	      1.87992356	    344.37740357	      0.21800678	     -0.01082525	     -0.00000000	      0.09334863	     -1.87992356	   -344.37740357	     -0.21800678	      0.75037935	     -0.00388769	     -0.32945611
      1.25716786	    290.85619754	    289.01319129	      1.52473062	    220.78182716	      0.13133178	     -0.00653758	     -0.00000000	      0.07589976	     -1.52473062	   -220.78182716	     -0.13133178	      0.48187511	     -0.00319750	     -0.21914316
      1.26086786	    291.52784665	    290.95299967	      0.86897456	     81.08866515	      0.04507920	     -0.00225030	     -0.00000000	      0.04337824	     -0.86897456	    -81.08866515	     -0.04507920	      0.17718329	     -0.00185241	     -0.08337503
      1.26456786	    292.03406925	    292.38162936	      0.26833068	     15.50904783	      0.01441527	     -0.00072054	     -0.00000000	      0.01341237	     -0.26833068	    -15.50904783	     -0.01441527	      0.03391585	     -0.00057147	     -0.01648672
      1.26826786	    292.60006136	    292.95935911	      1.53740588	     66.46157402	      0.09919716	     -0.00495327	     -0.00000000	      0.07676814	     -1.53740588	    -66.46157402	     -0.09919716	      0.14547325	     -0.00325633	     -0.07289266
      1.27196786	    293.26115159	    293.16563264	      4.04428968	    201.03590640	      0.28638604	     -0.01426175	      0.00000000	      0.20140176	     -4.04428968	   -201.03590640	     -0.28638604	      0.44049352	     -0.00853785	     -0.22720532
      1.27566786	    293.97567543	    295.32782569	      3.90616701	    332.12442626	      0.25518112	     -0.01267433	      0.00000000	      0.19401136	     -3.90616701	   -332.12442626	     -0.25518112	      0.72852668	     -0.00827112	     -0.38680617
      1.27936786	    294.82732831	    296.81981095	      2.60581827	    374.92288515	      0.27238209	     -0.01351698	     -0.00000000	      0.12931389	     -2.60581827	   -374.92288515	     -0.27238209	      0.82352324	     -0.00539681	     -0.44996690
      1.28306786	    296.04300178	    297.18640478	      1.97786320	    301.89569528	      0.28065909	     -0.01394820	     -0.00000000	      0.09829586	     -1.97786320	   -301.89569528	     -0.28065909	      0.66446025	     -0.00400633	     -0.37311304
      1.28633562	    297.33306576	    297.18607676	      1.55921507	    177.52922011	      0.24495142	     -0.01220407	      0.00000000	      0.07768384	     -1.55921507	   -177.52922011	     -0.24495142	      0.39157556	     -0.00312875	     -0.22496867
      1.28960338	    298.65528582	    297.18484817	      0.87979423	     62.50388762	      0.13167298	     -0.00657542	      0.00000000	      0.04393471	     -0.87979423	    -62.50388762	     -0.13167298	      0.13816362	     -0.00177385	     -0.08113121
      1.29330338	    299.93016337	    297.33960335	      0.38836501	     16.25510796	      0.04449044	     -0.00222380	     -0.00000000	      0.01941194	     -0.38836501	    -16.25510796	     -0.04449044	      0.03600535	     -0.00080098	     -0.02164819
      1.29700338	    300.75788712	    299.71303641	      2.64590315	     86.06722051	      0.15343465	     -0.00765853	      0.00000000	      0.13206750	     -2.64590315	    -86.06722051	     -0.15343465	      0.19088761	     -0.00565901	     -0.11740996
      1.30070338	    301.30187725	    301.57344014	      5.57041833	    226.81323594	      0.31024924	     -0.01544212	     -0.00000000	      0.27725797	     -5.57041833	   -226.81323594	     -0.31024924	      0.50344728	     -0.01193113	     -0.31675723
      1.30440338	    301.94855961	    302.31411196	      4.71977400	    347.37938000	      0.31671714	     -0.01572586	     -0.00000000	      0.23434950	     -4.71977400	   -347.37938000	     -0.31671714	      0.77178664	     -0.01003303	     -0.49694837
      1.30810338	    302.69309141	    302.53934766	      3.30198292	    369.79453401	      0.24358851	     -0.01208934	     -0.00000000	      0.16387797	     -3.30198292	   -369.79453401	     -0.24358851	      0.82251684	     -0.00698739	     -0.54205924
      1.31180338	    303.42205907	    302.60525675	      2.60549456	    279.71789073	      0.17857393	     -0.00887873	      0.00000000	      0.12954566	     -2.60549456	   -279.71789073	     -0.17857393	      0.62288232	     -0.00553386	     -0.41997199
      1.31550338	    304.03404879	    302.70782274	      1.79335829	    135.45657498	      0.09134725	     -0.00455498	     -0.00000000	      0.08942490	     -1.79335829	   -135.45657498	     -0.09134725	      0.30192781	     -0.00385696	     -0.20815394
      1.31920338	    304.45122490	    303.25428427	      0.65243970	     30.18645024	      0.01847734	     -0.00092331	     -0.00000000	      0.03260229	     -0.65243970	    -30.18645024	     -0.01847734	      0.06732564	     -0.00142613	     -0.04742379
      1.32290338	    304.69532551	    304.68282119	      1.02898964	     31.93355722	      0.01957377	     -0.00097806	      0.00000000	      0.05141663	     -1.02898964	    -31.93355722	     -0.01957377	      0.07124496	     -0.00226432	     -0.05121260
      1.32660338	    304.93750857	    305.30046330	      4.78925632	    139.62442368	      0.12230131	     -0.00609800	     -0.00000000	      0.23879437	     -4.78925632	   -139.62442368	     -0.12230131	      0.31160179	     -0.01048827	     -0.22830424
      1.33030338	    305.29747199	    305.81108270	      6.61309952	    283.57929789	      0.25314073	     -0.01258528	     -0.00000000	      0.32878030	     -6.61309952	   -283.57929789	     -0.25314073	      0.63315802	     -0.01434322	     -0.47284172
      1.33400338	    305.84976271	    307.32933335	      4.78463505	    370.61468954	      0.30887702	     -0.01532939	     -0.00000000	      0.23745866	     -4.78463505	   -370.61468954	     -0.30887702	      0.82811790	     -0.01016540	     -0.63065336
      1.33770338	    306.68921810	    307.75617166	      3.45048186	    344.52199261	      0.33275108	     -0.01652289	     -0.00000000	      0.17133506	     -3.45048186	   -344.52199261	     -0.33275108	      0.77079813	     -0.00714181	     -0.59838410
      1.34140338	    307.76461629	    307.89115397	      2.65951932	    222.32298501	      0.30561143	     -0.01521260	      0.00000000	      0.13238446	     -2.65951932	   -222.32298501	     -0.30561143	      0.49824134	     -0.00541862	     -0.39396308
      1.34510338	    308.93948151	    308.58361811	      1.53573642	     83.01362553	      0.18040559	     -0.00900530	      0.00000000	      0.07665929	     -1.53573642	    -83.01362553	     -0.18040559	      0.18637745	     -0.00312204	     -0.14996519
      1.34880338	    310.06572748	    309.65647442	      0.49980107	     16.56751865	      0.05567567	     -0.00278286	      0.00000000	      0.02498177	     -0.49980107	    -16.56751865	     -0.05567567	      0.03725994	     -0.00102163	     -0.03047584
      1.35250338	    311.07820834	    310.21794248	      2.64670075	     65.96642439	      0.28378101	     -0.01417034	      0.00000000	      0.13216049	     -2.64670075	    -65.96642439	     -0.28378101	      0.14858162	     -0.00543059	     -0.12338449
      1.35620338	    312.02685432	    311.24601651	      7.21711567	    199.30137980	      0.71654834	     -0.03568467	      0.00000000	      0.35941798	     -7.21711567	   -199.30137980	     -0.71654834	      0.44952488	     -0.01491630	     -0.37880748
      1.35990338	    312.97099979	    313.61013305	      7.24318489	    330.25793970	      0.62151798	     -0.03087069	     -0.00000000	      0.35976776	     -7.24318489	   -330.25793970	     -0.62151798	      0.74589678	     -0.01515764	     -0.63833820
